:SAMPLES-PER-SECOND 30
:FULLY-SPECIFIED
:DEGREES
84
root  14.2125 40.0454 0.842522 -84.9319 -88.7263 81.37
RightUpLeg  3.12849 -8.26235 -4.55755
RightLeg  4.03121 3.13784 -0.106438
RightFoot  -3.86274 -0.0984117 1.08334
RightToes  4.6566e-010 0 -3.6325e-017
Spine  2.62746 0.0862186 1.06594
Spine1  3.17652 0.417499 -1.12177
HEad  -4.65599 -2.98496 -1.32841
LeftShoulder1  0.15249 2.02035 -2.23751
LeftArm  -21.9412 2.63636 -16.181
LeftForeArm  -1.86092 1.74927 2.93494
LeftHand  -0.098018 2.66598 3.6677
RightShoulder  0.0900434 -2.56714 1.37568
RightArm  -11.3101 1.71637 9.82218
RightForeArm  -4.34541 -2.13648 -3.38146
RightHand  -0.208056 6.87762 -2.31735
LeftUpLeg  3.02621 7.04218 3.93885
LeftLeg  1.74799 -3.52966 0.347207
LeftFoot  -1.10391 0.0471076 -0.407238
LeftToes  -4.59298e-010 2.08438e-011 -1.27151e-011
85
root  14.2178 40.0422 0.841712 -84.2878 -88.7035 80.7254
RightUpLeg  3.06794 -8.28589 -4.58261
RightLeg  4.13058 3.1565 -0.0967074
RightFoot  -3.88503 -0.099081 1.09372
RightToes  4.6566e-010 0 -3.6325e-017
Spine  2.47403 0.0897407 1.06044
Spine1  3.39316 0.419461 -1.09087
HEad  -4.28209 -3.28295 -1.42284
LeftShoulder1  0.15288 2.05192 -2.34254
LeftArm  -21.8614 2.57176 -16.0238
LeftForeArm  -1.88354 1.74773 2.87573
LeftHand  -0.0929394 2.75841 3.55481
RightShoulder  0.0898594 -2.56064 1.32756
RightArm  -11.3315 1.69158 9.84068
RightForeArm  -4.36398 -2.16542 -3.39505
RightHand  -0.204782 6.77474 -2.30109
LeftUpLeg  3.0099 7.02121 3.91216
LeftLeg  1.77105 -3.51692 0.349312
LeftFoot  -1.11707 0.0451979 -0.377559
LeftToes  -4.59298e-010 2.08438e-011 -1.27151e-011
86
root  14.226 40.0423 0.837668 -83.8975 -88.6917 80.3058
RightUpLeg  3.09451 -8.27742 -4.5813
RightLeg  4.12502 3.12743 -0.109554
RightFoot  -3.89364 -0.0980862 1.07828
RightToes  4.6566e-010 0 -3.6325e-017
Spine  2.37305 0.106141 1.04384
Spine1  3.56013 0.430816 -1.06594
HEad  -4.23773 -3.18382 -1.51843
LeftShoulder1  0.162635 1.95623 -2.32854
LeftArm  -21.8542 2.632 -15.9915
LeftForeArm  -1.93486 1.80871 2.88742
LeftHand  -0.0874799 3.04114 3.63728
RightShoulder  0.0905119 -2.51182 1.25756
RightArm  -11.3393 1.54493 9.85991
RightForeArm  -4.32713 -2.03829 -3.40351
RightHand  -0.209135 6.47705 -2.38485
LeftUpLeg  3.02122 7.01667 3.89715
LeftLeg  1.77578 -3.48991 0.362457
LeftFoot  -1.11584 0.0473991 -0.411768
LeftToes  -4.59298e-010 2.08438e-011 -1.27151e-011
87
root  14.2383 40.0406 0.835216 -82.4541 -88.6834 78.8439
RightUpLeg  3.09801 -8.29329 -4.59028
RightLeg  4.13686 3.10385 -0.0970031
RightFoot  -3.87462 -0.094028 1.01531
RightToes  4.6566e-010 0 -3.6325e-017
Spine  2.37771 0.0837144 1.00111
Spine1  3.59537 0.385851 -0.954689
HEad  -4.07798 -3.15179 -1.55847
LeftShoulder1  0.155006 2.03763 -2.39907
LeftArm  -21.8338 2.64098 -15.9397
LeftForeArm  -1.92396 1.76422 2.87019
LeftHand  -0.0857016 2.98274 3.51469
RightShoulder  0.0914644 -2.4698 1.07221
RightArm  -11.3825 1.42887 9.96166
RightForeArm  -4.11215 -1.86558 -3.42298
RightHand  -0.192141 6.15662 -2.26434
LeftUpLeg  2.98268 7.01456 3.9116
LeftLeg  1.84584 -3.58076 0.350566
LeftFoot  -1.11945 0.0480871 -0.42246
LeftToes  -4.59298e-010 2.08438e-011 -1.27151e-011
88
root  14.2527 40.0371 0.833059 -82.2004 -88.6923 78.5349
RightUpLeg  3.13215 -8.29097 -4.58104
RightLeg  4.14761 3.07862 -0.0982182
RightFoot  -3.90634 -0.0952827 1.03478
RightToes  4.6566e-010 0 -3.6325e-017
Spine  2.39946 0.097399 0.963292
Spine1  3.64845 0.373428 -0.826379
HEad  -4.06772 -3.08594 -1.62347
LeftShoulder1  0.160836 2.00503 -2.57995
LeftArm  -21.637 2.60303 -15.7192
LeftForeArm  -2.30693 1.78127 2.73748
LeftHand  -0.0846617 3.21845 3.79882
RightShoulder  0.092663 -2.47953 0.964618
RightArm  -11.5148 1.51988 10.0002
RightForeArm  -4.03063 -2.03776 -3.48894
RightHand  -0.196019 6.30164 -2.28208
LeftUpLeg  2.99102 7.03729 3.93322
LeftLeg  1.90244 -3.60546 0.336426
LeftFoot  -1.14399 0.0435899 -0.35257
LeftToes  -4.59298e-010 2.08438e-011 -1.27151e-011
89
root  14.2658 40.0362 0.825832 -83.6071 -88.705 79.8996
RightUpLeg  3.12383 -8.24533 -4.54412
RightLeg  4.18954 3.07308 -0.132916
RightFoot  -3.91859 -0.101755 1.13522
RightToes  4.6566e-010 0 -3.6325e-017
Spine  2.42546 0.105164 0.932476
Spine1  3.68114 0.37008 -0.768785
HEad  -3.87438 -2.95292 -1.60929
LeftShoulder1  0.169442 1.92707 -2.59669
LeftArm  -21.4966 2.7495 -15.5608
LeftForeArm  -2.55312 1.67589 2.65061
LeftHand  -0.0879254 3.32694 3.7658
RightShoulder  0.0940599 -2.45715 0.969054
RightArm  -11.5124 1.54434 9.97312
RightForeArm  -4.01658 -2.00398 -3.4792
RightHand  -0.205015 6.29639 -2.37168
LeftUpLeg  3.01354 7.05781 3.95206
LeftLeg  1.9083 -3.54675 0.33079
LeftFoot  -1.1339 0.0433845 -0.349379
LeftToes  -4.59298e-010 2.08438e-011 -1.27151e-011
90
root  14.2808 40.0347 0.820997 -82.0952 -88.7164 78.4226
RightUpLeg  3.04878 -8.22901 -4.50715
RightLeg  4.22593 3.04011 -0.130405
RightFoot  -3.88179 -0.0990665 1.0935
RightToes  4.6566e-010 0 -3.6325e-017
Spine  2.51767 0.0822582 0.904011
Spine1  3.49662 0.326249 -0.674611
HEad  -3.57613 -2.84058 -1.85348
LeftShoulder1  0.173978 1.89443 -2.67069
LeftArm  -21.3748 2.81786 -15.3264
LeftForeArm  -2.47588 1.64471 2.58832
LeftHand  -0.0883897 2.94428 3.58723
RightShoulder  0.0955799 -2.41308 0.895044
RightArm  -11.4756 1.50136 9.96972
RightForeArm  -3.98429 -1.9526 -3.46507
RightHand  -0.22251 6.22209 -2.55914
LeftUpLeg  2.94203 7.05299 3.97901
LeftLeg  1.92991 -3.60613 0.321305
LeftFoot  -1.14377 0.0417995 -0.324746
LeftToes  -4.59298e-010 2.08438e-011 -1.27151e-011
91
root  14.2993 40.0333 0.816642 -81.1086 -88.7244 77.4325
RightUpLeg  2.99556 -8.23876 -4.4874
RightLeg  4.27877 3.01311 -0.115184
RightFoot  -3.88009 -0.0975235 1.06955
RightToes  4.6566e-010 0 -3.6325e-017
Spine  2.60133 0.0426787 0.841433
Spine1  3.42322 0.261153 -0.546035
HEad  -3.53172 -2.81518 -1.89207
LeftShoulder1  0.16192 2.00778 -2.68498
LeftArm  -21.4034 2.77328 -15.2028
LeftForeArm  -2.248 1.61288 2.59979
LeftHand  -0.0916981 2.70799 3.43446
RightShoulder  0.0971629 -2.35335 0.78024
RightArm  -11.3499 1.55202 10.0372
RightForeArm  -4.12531 -2.02237 -3.414
RightHand  -0.234472 6.03605 -2.71278
LeftUpLeg  2.86843 7.00904 3.96075
LeftLeg  2.00634 -3.55625 0.370408
LeftFoot  -1.16477 0.0436738 -0.353874
LeftToes  -4.59298e-010 2.08438e-011 -1.27151e-011
92
root  14.3135 40.0325 0.812715 -82.3764 -88.7403 78.613
RightUpLeg  3.06964 -8.26687 -4.50028
RightLeg  4.26544 3.06006 -0.0822755
RightFoot  -3.8592 -0.0962828 1.0503
RightToes  4.6566e-010 0 -3.6325e-017
Spine  2.70265 0.0514027 0.97517
Spine1  3.43388 0.307166 -0.719463
HEad  -3.4869 -2.88276 -1.80269
LeftShoulder1  0.161762 1.99437 -2.55708
LeftArm  -21.4955 2.68153 -15.2075
LeftForeArm  -2.06404 1.59343 2.63149
LeftHand  -0.0944901 2.81471 3.68399
RightShoulder  0.098736 -2.38121 0.721209
RightArm  -11.5334 1.5103 10.1481
RightForeArm  -3.87138 -2.00428 -3.4964
RightHand  -0.212156 6.46806 -2.4152
LeftUpLeg  2.90081 7.03356 3.99384
LeftLeg  2.09335 -3.5521 0.361595
LeftFoot  -1.19285 0.045717 -0.385626
LeftToes  -4.59298e-010 2.08438e-011 -1.27151e-011
93
root  14.3224 40.0325 0.809894 -83.7755 -88.7403 79.9543
RightUpLeg  3.10906 -8.29348 -4.52297
RightLeg  4.30387 3.15272 -0.0581863
RightFoot  -3.87976 -0.0952938 1.03495
RightToes  4.6566e-010 0 -3.6325e-017
Spine  2.72953 0.0781637 0.94974
Spine1  3.49857 0.32891 -0.675303
HEad  -3.42993 -2.89998 -1.8123
LeftShoulder1  0.160586 1.9954 -2.45763
LeftArm  -21.6632 2.59707 -15.2544
LeftForeArm  -1.47545 1.61393 2.72788
LeftHand  -0.0848929 2.94565 3.39146
RightShoulder  0.100255 -2.41066 0.818801
RightArm  -11.4974 1.61496 9.99122
RightForeArm  -3.82207 -2.06019 -3.48094
RightHand  -0.201143 6.34067 -2.327
LeftUpLeg  2.95536 6.98697 3.9661
LeftLeg  2.09726 -3.50672 0.422847
LeftFoot  -1.18772 0.0453584 -0.380054
LeftToes  -4.59298e-010 2.08438e-011 -1.27151e-011
94
root  14.3296 40.0307 0.802485 -87.1499 -88.746 83.3047
RightUpLeg  3.11888 -8.27037 -4.50151
RightLeg  4.28647 3.16933 -0.0713607
RightFoot  -3.89925 -0.094292 1.0194
RightToes  4.6566e-010 0 -3.6325e-017
Spine  2.73753 0.13333 0.894841
Spine1  3.50909 0.370388 -0.61106
HEad  -3.22635 -2.97261 -1.86738
LeftShoulder1  0.159179 2.02358 -2.49851
LeftArm  -21.5666 2.33644 -15.1568
LeftForeArm  -1.60224 1.72888 2.6546
LeftHand  -0.0877353 2.85419 3.41877
RightShoulder  0.101649 -2.43467 0.840231
RightArm  -11.2169 1.66498 9.85239
RightForeArm  -3.8576 -2.02633 -3.36526
RightHand  -0.18724 6.32819 -2.19185
LeftUpLeg  2.9712 7.05021 4.01225
LeftLeg  2.13155 -3.53327 0.365567
LeftFoot  -1.21258 0.0402325 -0.300393
LeftToes  -4.59298e-010 2.08438e-011 -1.27151e-011
95
root  14.3436 40.0263 0.797226 -88.9125 -88.7465 85.0482
RightUpLeg  3.03048 -8.26943 -4.49336
RightLeg  4.44953 3.2255 -0.0679014
RightFoot  -3.93156 -0.09004 0.95342
RightToes  4.6566e-010 0 -3.6325e-017
Spine  2.84404 0.142135 0.925262
Spine1  3.39557 0.397061 -0.674638
HEad  -3.17266 -2.89819 -1.90051
LeftShoulder1  0.157728 2.02943 -2.3959
LeftArm  -21.5829 2.29748 -15.1997
LeftForeArm  -1.24808 1.57863 2.62759
LeftHand  -0.0862857 2.86904 3.37371
RightShoulder  0.102862 -2.48304 0.984403
RightArm  -11.2311 1.7972 9.78093
RightForeArm  -3.76743 -2.07802 -3.36165
RightHand  -0.183067 6.45562 -2.13365
LeftUpLeg  2.9714 7.0289 4.00239
LeftLeg  2.13912 -3.42676 0.386656
LeftFoot  -1.2341 0.0443324 -0.364109
LeftToes  -4.59298e-010 2.08438e-011 -1.27151e-011
96
root  14.3539 40.0272 0.795923 -89.4904 -88.7466 85.5924
RightUpLeg  3.04314 -8.30441 -4.51716
RightLeg  4.46597 3.27698 -0.0325326
RightFoot  -3.92536 -0.0892778 0.941592
RightToes  4.6566e-010 0 -3.6325e-017
Spine  2.8475 0.126283 0.911415
Spine1  3.45352 0.380729 -0.669478
HEad  -3.08588 -2.77319 -1.93833
LeftShoulder1  0.156418 1.99426 -2.33501
LeftArm  -21.5519 2.29791 -15.1955
LeftForeArm  -1.25888 1.63223 2.62644
LeftHand  -0.0942943 2.48351 3.31397
RightShoulder  0.103823 -2.50644 0.97894
RightArm  -11.235 1.8417 9.84663
RightForeArm  -3.86978 -2.00254 -3.33888
RightHand  -0.194732 6.29761 -2.27048
LeftUpLeg  3.01176 7.02385 4.01217
LeftLeg  2.10657 -3.45572 0.391386
LeftFoot  -1.21029 0.0469064 -0.404111
LeftToes  -4.59298e-010 2.08438e-011 -1.27151e-011
